<svg height='300px' width='300px'  fill="#ec5d57" xmlns:dc="http://purl.org/dc/elements/1.1/" xmlns:cc="http://creativecommons.org/ns#" xmlns:rdf="http://www.w3.org/1999/02/22-rdf-syntax-ns#" xmlns:svg="http://www.w3.org/2000/svg" xmlns="http://www.w3.org/2000/svg" xmlns:sodipodi="http://sodipodi.sourceforge.net/DTD/sodipodi-0.dtd" xmlns:inkscape="http://www.inkscape.org/namespaces/inkscape" version="1.1" x="0px" y="0px" viewBox="0 0 100 100"><g transform="translate(0,-952.36218)"><path d="m 50,974.99161 c -2,-5.6401 -6,-10.6422 -13.2813,-10.6294 -2.5106,0.1831 -4.7038,1.2396 -6.3125,2.7199 -2.1449,1.9735 -3.3834,4.6574 -3.4062,7.3154 0,1.9913 0.9397,3.6389 2.25,4.9396 l -19.2500001,0 0,16.00656 38.0000001,0 0,-8.00326 4,0 0,8.00326 38,0 0,-16.00656 -19.25,0 c 1.3102,-1.3007 2.25,-2.9483 2.25,-4.9396 -0.023,-2.658 -1.2614,-5.3419 -3.4063,-7.3154 -1.6087,-1.4802 -3.8019,-2.5368 -6.3125,-2.7199 -7.2813,-0.013 -11.2813,4.9895 -13.2812,10.6294 z m -35.0001,22.35306 0,43.01753 33,0 0,-37.0151 4,0 0,37.0151 33,0 0,-43.01753 z" style="color:#000000;enable-background:accumulate;" fill="#ec5d57" stroke="none" marker="none" visibility="visible" display="inline" overflow="visible"></path></g></svg>