<svg height='300px' width='300px'  fill="#ff9800" xmlns="http://www.w3.org/2000/svg" xmlns:xlink="http://www.w3.org/1999/xlink" version="1.1" x="0px" y="0px" viewBox="0 0 24 24" enable-background="new 0 0 24 24" xml:space="preserve"><path d="M16.7,15.7c0.2-1.2,0.3-2.4,0.3-3.7c0-5.8-5-10-5-10S7,6.2,7,12c0,1.3,0.1,2.5,0.3,3.7L4,19v3l4.7-1.9  C9,20.8,9.5,21.5,10,22H14c0.5-0.5,0.9-1.1,1.3-1.9L20,22v-3L16.7,15.7z M12,12c-1.1,0-2-0.9-2-2c0-1.1,0.9-2,2-2c1.1,0,2,0.9,2,2  C14,11.1,13.1,12,12,12z"></path></svg>