<svg width="100" height="226" viewBox="0 0 100 226" fill="none" xmlns="http://www.w3.org/2000/svg">
<path d="M32.0169 103.096C31.0169 103.296 30.3169 103.396 29.5169 103.496C29.1169 101.396 31.3169 101.896 32.1169 100.896C32.1169 98.1963 32.0169 95.5963 32.1169 92.8963C32.5169 85.8963 32.9169 78.9963 33.6169 71.9963C33.9169 68.7963 35.0169 68.0963 38.3169 67.6963C46.9169 66.5963 55.6169 66.7963 64.2169 67.7963C66.4169 68.0963 67.5169 68.8963 68.0169 70.9963C68.5169 73.0963 68.9169 75.2963 69.0169 77.3963C69.4169 84.6963 69.6169 92.0963 69.8169 99.3963C69.8169 99.7963 69.9169 100.296 69.9169 100.496C70.5169 101.796 72.7169 101.296 72.4169 103.396C71.6169 103.296 70.9169 103.196 69.8169 103.096C69.8169 106.996 69.8169 110.896 69.8169 114.796C69.8169 126.396 69.9169 137.996 69.8169 149.596C69.8169 152.896 69.2169 156.196 68.9169 159.496C68.7169 161.196 67.7169 162.096 66.0169 162.096C55.9169 162.096 45.8169 162.096 35.8169 162.096C34.1169 162.096 33.1169 161.196 33.0169 159.396C32.7169 152.396 32.3169 145.496 32.2169 138.496C32.1169 131.996 32.2169 125.496 32.2169 118.996C32.2169 114.496 32.2169 109.896 32.2169 105.396C32.1169 104.796 32.0169 103.996 32.0169 103.096ZM35.1169 71.5963C37.3169 70.8963 40.0169 71.7963 41.8169 69.6963C39.4169 69.9963 36.7169 68.7963 35.1169 71.5963ZM66.5169 71.3963C64.8169 68.9963 62.2169 69.8963 59.9169 69.5963C61.7169 71.7963 64.3169 70.8963 66.5169 71.3963Z" fill="#7C1E22"/>
<path d="M32.0169 103.096C31.0169 103.296 30.3169 103.396 29.5169 103.496C29.1169 101.396 31.3169 101.896 32.1169 100.896C32.1169 98.1963 32.0169 95.5963 32.1169 92.8963C32.5169 85.8963 32.9169 78.9963 33.6169 71.9963C33.9169 68.7963 35.0169 68.0963 38.3169 67.6963C46.9169 66.5963 55.6169 66.7963 64.2169 67.7963C66.4169 68.0963 67.5169 68.8963 68.0169 70.9963C68.5169 73.0963 68.9169 75.2963 69.0169 77.3963C69.4169 84.6963 69.6169 92.0963 69.8169 99.3963C69.8169 99.7963 69.9169 100.296 69.9169 100.496C70.5169 101.796 72.7169 101.296 72.4169 103.396C71.6169 103.296 70.9169 103.196 69.8169 103.096C69.8169 106.996 69.8169 110.896 69.8169 114.796C69.8169 126.396 69.9169 137.996 69.8169 149.596C69.8169 152.896 69.2169 156.196 68.9169 159.496C68.7169 161.196 67.7169 162.096 66.0169 162.096C55.9169 162.096 45.8169 162.096 35.8169 162.096C34.1169 162.096 33.1169 161.196 33.0169 159.396C32.7169 152.396 32.3169 145.496 32.2169 138.496C32.1169 131.996 32.2169 125.496 32.2169 118.996C32.2169 114.496 32.2169 109.896 32.2169 105.396C32.1169 104.796 32.0169 103.996 32.0169 103.096ZM66.6169 98.0963C60.3169 93.5963 39.9169 93.7963 35.2169 98.2963C36.2169 101.596 37.2169 104.996 38.2169 108.096C38.9169 108.296 39.1169 108.396 39.3169 108.296C46.8169 107.596 54.4169 107.496 61.9169 108.196C62.5169 108.296 63.6169 107.696 63.8169 107.196C64.8169 104.296 65.7169 101.196 66.6169 98.0963ZM67.0171 159.796C66.6171 156.196 67.8169 127.596 67.4169 123.796C59.0171 126.796 42.5171 126.796 34.5169 123.296C34.1169 127.196 35.4171 156.196 35.0171 159.796C42.0171 160.796 62.0171 160.796 67.0171 159.796ZM67.4169 103.196C64.4169 109.096 64.0169 114.996 64.9169 121.196C65.9169 120.496 67.2169 119.696 67.3169 118.796C67.5169 113.796 67.4169 108.696 67.4169 103.196ZM37.1169 121.296C38.1169 115.096 36.8169 107.196 34.5169 103.796C34.5169 109.096 34.5169 114.396 34.5169 119.796C35.3169 120.296 36.0169 120.696 37.1169 121.296ZM35.1169 71.5963C37.3169 70.8963 40.0169 71.7963 41.8169 69.6963C39.4169 69.9963 36.7169 68.7963 35.1169 71.5963ZM66.5169 71.3963C64.8169 68.9963 62.2169 69.8963 59.9169 69.5963C61.7169 71.7963 64.3169 70.8963 66.5169 71.3963Z" fill="#E84A50"/>
<path d="M64.9448 71.1925L89.2181 24.2037C91.2459 20.2784 89.6974 15.4709 85.6182 13.7737C79.4549 11.2094 70.5165 8.09631 63.4448 8.09631C56.3731 8.09631 47.4347 11.2094 41.2714 13.7737C37.1922 15.4709 35.6437 20.2784 37.6714 24.2037L61.5772 70.4811L64.9448 71.1925Z" fill="#FFFF01" fill-opacity="0.4"/>
<path d="M39.808 70.5L63.7733 24.1074C65.8011 20.182 64.2526 15.3746 60.1734 13.6774C54.0101 11.113 45.0717 7.99997 38 7.99997C30.9283 7.99997 21.9898 11.113 15.8265 13.6774C11.7474 15.3746 10.1989 20.182 12.2266 24.1074L36.5 71.0963L39.808 70.5Z" fill="#FFFF01" fill-opacity="0.4"/>
<path fill-rule="evenodd" clip-rule="evenodd" d="M37.5365 71.2529C36.7088 71.3029 35.8827 71.3527 35.1171 71.5963C36.2797 69.5618 38.023 69.6391 39.81 69.7184C40.4824 69.7482 41.1609 69.7783 41.8171 69.6963C40.6435 71.0655 39.0873 71.1594 37.5365 71.2529ZM61.7986 69.6656C63.5399 69.651 65.2705 69.6364 66.5171 71.3963C65.8323 71.2407 65.1087 71.2207 64.3826 71.2006C62.776 71.1562 61.1568 71.1115 59.9171 69.5963C60.5305 69.6763 61.1653 69.671 61.7986 69.6656Z" fill="white"/>
<path fill-rule="evenodd" clip-rule="evenodd" d="M60.4448 150.096L42.4448 150.096L42.4448 132.096L60.4448 132.096L60.4448 150.096Z" fill="#FF9501"/>
<path fill-rule="evenodd" clip-rule="evenodd" d="M60.4448 150.096L42.4448 150.096L42.4448 132.096L60.4448 132.096L60.4448 150.096Z" fill="url(#paint0_linear)"/>
<path fill-rule="evenodd" clip-rule="evenodd" d="M60.4448 150.096L42.4448 150.096L42.4448 132.096L60.4448 132.096L60.4448 150.096Z" fill="url(#paint1_linear)"/>
<path fill-rule="evenodd" clip-rule="evenodd" d="M60.4448 150.096L42.4448 150.096L42.4448 132.096L60.4448 132.096L60.4448 150.096Z" fill="url(#paint2_linear)"/>
<path fill-rule="evenodd" clip-rule="evenodd" d="M60.4448 150.096L42.4448 150.096L42.4448 132.096L60.4448 132.096L60.4448 150.096Z" fill="url(#paint3_linear)"/>
<mask id="mask0" mask-type="alpha" maskUnits="userSpaceOnUse" x="42" y="132" width="19" height="19">
<path fill-rule="evenodd" clip-rule="evenodd" d="M60.4448 150.096L42.4448 150.096L42.4448 132.096L60.4448 132.096L60.4448 150.096Z" fill="white"/>
</mask>
<g mask="url(#mask0)">
</g>
<rect x="60.4448" y="142.096" width="18" height="2" transform="rotate(-180 60.4448 142.096)" fill="white"/>
<rect x="50.4448" y="150.096" width="18" height="2" transform="rotate(-90 50.4448 150.096)" fill="white"/>
<path d="M57.4448 137.617L52.0576 141.709L47.9655 147.096L45.2182 144.349L50.6054 140.257L54.6976 134.87L57.4448 137.617Z" fill="white"/>
<path d="M54.6973 147.096L50.6051 141.709L45.2179 137.617L47.9652 134.87L52.0573 140.257L57.4445 144.349L54.6973 147.096Z" fill="white"/>
<defs>
<linearGradient id="paint0_linear" x1="47.9268" y1="135.874" x2="49.1418" y2="131.039" gradientUnits="userSpaceOnUse">
<stop stop-color="#FFB401" stop-opacity="0.01"/>
<stop offset="1" stop-color="#FFB401"/>
</linearGradient>
<linearGradient id="paint1_linear" x1="40.8719" y1="149.214" x2="53.8236" y2="146.601" gradientUnits="userSpaceOnUse">
<stop stop-color="#FF7001"/>
<stop offset="1" stop-color="#FF7001" stop-opacity="0.01"/>
</linearGradient>
<linearGradient id="paint2_linear" x1="50.2508" y1="142.622" x2="54.7081" y2="134.325" gradientUnits="userSpaceOnUse">
<stop stop-color="#FFB301" stop-opacity="0.01"/>
<stop offset="1" stop-color="#FFB301"/>
</linearGradient>
<linearGradient id="paint3_linear" x1="51.2655" y1="157.847" x2="57.2075" y2="146.321" gradientUnits="userSpaceOnUse">
<stop stop-color="#FF7001"/>
<stop offset="1" stop-color="#FF7001" stop-opacity="0.01"/>
</linearGradient>
</defs>
</svg>
