<svg width="64" height="64" viewBox="0 0 64 64" fill="none" xmlns="http://www.w3.org/2000/svg">
<path d="M50 57.8699H14" stroke="#161616" stroke-width="1.5" stroke-linecap="round" stroke-linejoin="round"/>
<path d="M47.4392 19.1414H16.2798V57.6725H47.4392V19.1414Z" fill="#FF9803" stroke="#161616" stroke-linecap="round" stroke-linejoin="round"/>
<path d="M44.2896 46.9873H40.48V52.3385H44.2896V46.9873Z" fill="white" stroke="#161616" stroke-width="0.5" stroke-linecap="round" stroke-linejoin="round"/>
<path d="M44.2896 49.6643H40.48" stroke="#161616" stroke-width="0.5" stroke-linecap="round" stroke-linejoin="round"/>
<path d="M42.3867 46.9873V49.6644" stroke="#161616" stroke-width="0.5" stroke-linecap="round" stroke-linejoin="round"/>
<path d="M37.2739 46.9873H33.4644V52.3385H37.2739V46.9873Z" fill="white" stroke="#161616" stroke-width="0.5" stroke-linecap="round" stroke-linejoin="round"/>
<path d="M37.2739 49.6643H33.4644" stroke="#161616" stroke-width="0.5" stroke-linecap="round" stroke-linejoin="round"/>
<path d="M35.3677 46.9873V49.6644" stroke="#161616" stroke-width="0.5" stroke-linecap="round" stroke-linejoin="round"/>
<path d="M30.2554 46.9873H26.4458V52.3385H30.2554V46.9873Z" fill="white" stroke="#161616" stroke-width="0.5" stroke-linecap="round" stroke-linejoin="round"/>
<path d="M30.2554 49.6643H26.4458" stroke="#161616" stroke-width="0.5" stroke-linecap="round" stroke-linejoin="round"/>
<path d="M28.3521 46.9873V49.6644" stroke="#161616" stroke-width="0.5" stroke-linecap="round" stroke-linejoin="round"/>
<path d="M23.2393 46.9873H19.4297V52.3385H23.2393V46.9873Z" fill="white" stroke="#161616" stroke-width="0.5" stroke-linecap="round" stroke-linejoin="round"/>
<path d="M23.2393 49.6643H19.4297" stroke="#161616" stroke-width="0.5" stroke-linecap="round" stroke-linejoin="round"/>
<path d="M21.333 46.9873V49.6644" stroke="#161616" stroke-width="0.5" stroke-linecap="round" stroke-linejoin="round"/>
<path d="M47.3971 8.02722H16.3198V19.1616H47.3971V8.02722Z" fill="#FF9803" stroke="#161616" stroke-linecap="round" stroke-linejoin="round"/>
<path d="M44.2896 10.9502H40.48V16.3014H44.2896V10.9502Z" fill="white" stroke="#161616" stroke-width="0.5" stroke-linecap="round" stroke-linejoin="round"/>
<path d="M44.2896 13.6273H40.48" stroke="#161616" stroke-width="0.5" stroke-linecap="round" stroke-linejoin="round"/>
<path d="M42.3867 10.9502V13.6272" stroke="#161616" stroke-width="0.5" stroke-linecap="round" stroke-linejoin="round"/>
<path d="M37.2739 10.9502H33.4644V16.3014H37.2739V10.9502Z" fill="white" stroke="#161616" stroke-width="0.5" stroke-linecap="round" stroke-linejoin="round"/>
<path d="M37.2739 13.6273H33.4644" stroke="#161616" stroke-width="0.5" stroke-linecap="round" stroke-linejoin="round"/>
<path d="M35.3677 10.9502V13.6272" stroke="#161616" stroke-width="0.5" stroke-linecap="round" stroke-linejoin="round"/>
<path d="M30.2554 10.9502H26.4458V16.3014H30.2554V10.9502Z" fill="white" stroke="#161616" stroke-width="0.5" stroke-linecap="round" stroke-linejoin="round"/>
<path d="M30.2554 13.6273H26.4458" stroke="#161616" stroke-width="0.5" stroke-linecap="round" stroke-linejoin="round"/>
<path d="M28.3521 10.9502V13.6272" stroke="#161616" stroke-width="0.5" stroke-linecap="round" stroke-linejoin="round"/>
<path d="M23.2393 10.9502H19.4297V16.3014H23.2393V10.9502Z" fill="white" stroke="#161616" stroke-width="0.5" stroke-linecap="round" stroke-linejoin="round"/>
<path d="M23.2393 13.6273H19.4297" stroke="#161616" stroke-width="0.5" stroke-linecap="round" stroke-linejoin="round"/>
<path d="M21.333 10.9502V13.6272" stroke="#161616" stroke-width="0.5" stroke-linecap="round" stroke-linejoin="round"/>
<path d="M48.5582 5.88794H15.0762V8.24179H48.5582V5.88794Z" fill="#161616" stroke="#161616" stroke-width="1.5" stroke-linecap="round" stroke-linejoin="round"/>
<path d="M25.1458 27.0468C24.7955 26.9811 24.435 26.9966 24.0915 27.0922C23.748 27.1879 23.4305 27.3611 23.1631 27.5988" stroke="#161616" stroke-width="1.5" stroke-linecap="round" stroke-linejoin="round"/>
<path d="M25.9357 31.1997C25.8148 30.8942 25.6113 30.6292 25.3483 30.4349C25.0854 30.2407 24.7736 30.1251 24.4487 30.1014C23.3327 30.0613 22.8682 31.1997 22.8682 31.1997" stroke="#161616" stroke-width="1.5" stroke-linecap="round" stroke-linejoin="round"/>
<path d="M37.4951 27.047C37.8454 26.9811 38.206 26.9965 38.5495 27.0921C38.893 27.1878 39.2105 27.3611 39.4778 27.599" stroke="#161616" stroke-width="1.5" stroke-linecap="round" stroke-linejoin="round"/>
<path d="M36.7041 31.1997C36.8254 30.8939 37.0295 30.6288 37.2929 30.4346C37.5564 30.2404 37.8686 30.1249 38.194 30.1014C39.3071 30.0613 39.7716 31.1997 39.7716 31.1997" stroke="#161616" stroke-width="1.5" stroke-linecap="round" stroke-linejoin="round"/>
<path d="M25.1458 27.0468C24.7955 26.9811 24.435 26.9966 24.0915 27.0922C23.748 27.1879 23.4305 27.3611 23.1631 27.5988" stroke="#161616" stroke-width="1.5" stroke-linecap="round" stroke-linejoin="round"/>
<path d="M25.9357 31.1997C25.8148 30.8942 25.6113 30.6292 25.3483 30.4349C25.0854 30.2407 24.7736 30.1251 24.4487 30.1014C23.3327 30.0613 22.8682 31.1997 22.8682 31.1997" stroke="#161616" stroke-width="1.5" stroke-linecap="round" stroke-linejoin="round"/>
<path d="M37.4951 27.047C37.8454 26.9811 38.206 26.9965 38.5495 27.0921C38.893 27.1878 39.2105 27.3611 39.4778 27.599" stroke="#161616" stroke-width="1.5" stroke-linecap="round" stroke-linejoin="round"/>
<path d="M36.7041 31.1997C36.8254 30.8939 37.0295 30.6288 37.2929 30.4346C37.5564 30.2404 37.8686 30.1249 38.194 30.1014C39.3071 30.0613 39.7716 31.1997 39.7716 31.1997" stroke="#161616" stroke-width="1.5" stroke-linecap="round" stroke-linejoin="round"/>
<path d="M37.2233 35.1465C35.4618 36.1816 33.4547 36.7135 31.4168 36.6852C27.7035 36.6852 25.6104 35.1465 25.6104 35.1465" stroke="#161616" stroke-width="1.5" stroke-linecap="round" stroke-linejoin="round"/>
</svg>
