<svg width="64" height="64" viewBox="0 0 64 64" fill="none" xmlns="http://www.w3.org/2000/svg">
<g clip-path="url(#clip0)">
<g filter="url(#filter0_d)">
<path d="M42.87 39.8999C42.7759 40.0143 42.689 40.1346 42.61 40.2599C39.2409 45.131 34.5053 48.8958 29 51.0799C29.76 51.0799 30.5 51.0199 31.21 51.0099V55.5199H34.11V50.9999C41.48 51.1599 51.31 52.4099 51.31 52.4099C51.31 52.4099 47.33 46.5699 42.87 39.8999ZM44.5 49.7799C44.3022 49.7799 44.1089 49.7213 43.9444 49.6114C43.78 49.5015 43.6518 49.3453 43.5761 49.1626C43.5004 48.9799 43.4806 48.7788 43.5192 48.5848C43.5578 48.3908 43.653 48.2126 43.7929 48.0728C43.9327 47.9329 44.1109 47.8377 44.3049 47.7991C44.4989 47.7605 44.7 47.7803 44.8827 47.856C45.0654 47.9317 45.2216 48.0599 45.3315 48.2243C45.4414 48.3888 45.5 48.5821 45.5 48.7799C45.5 49.0434 45.396 49.2962 45.2107 49.4835C45.0253 49.6707 44.7735 49.7773 44.51 49.7799H44.5Z" fill="#4EFFB4"/>
<path d="M48 39.64C47.76 39.28 43.76 33.43 39.71 27.02C39.59 27.19 39.47 27.39 39.33 27.61C37.501 30.8288 35.011 33.6238 32.0241 35.811C29.0371 37.9983 25.6208 39.5281 22 40.3V40.3C17.28 46.81 13 52.4 13 52.4C13 52.4 18.32 51.78 24.09 51.4C31.2095 49.8054 37.47 45.5937 41.63 39.6C41.797 39.3505 41.9772 39.1102 42.17 38.88C45.29 39.23 47.81 39.63 48 39.64ZM21.6 49.21C21.4022 49.21 21.2089 49.1514 21.0444 49.0415C20.88 48.9316 20.7518 48.7754 20.6761 48.5927C20.6004 48.41 20.5806 48.2089 20.6192 48.0149C20.6578 47.8209 20.753 47.6428 20.8929 47.5029C21.0327 47.3631 21.2109 47.2678 21.4049 47.2292C21.5989 47.1906 21.8 47.2105 21.9827 47.2861C22.1654 47.3618 22.3216 47.49 22.4315 47.6544C22.5414 47.8189 22.6 48.0122 22.6 48.21C22.6 48.4752 22.4946 48.7296 22.3071 48.9171C22.1196 49.1047 21.8652 49.21 21.6 49.21ZM31.93 46.13C31.7322 46.13 31.5389 46.0714 31.3744 45.9615C31.21 45.8516 31.0818 45.6954 31.0061 45.5127C30.9304 45.33 30.9106 45.1289 30.9492 44.9349C30.9878 44.7409 31.083 44.5628 31.2229 44.4229C31.3627 44.2831 31.5409 44.1878 31.7349 44.1492C31.9289 44.1106 32.13 44.1305 32.3127 44.2061C32.4954 44.2818 32.6516 44.41 32.7615 44.5744C32.8714 44.7389 32.93 44.9322 32.93 45.13C32.9313 45.2622 32.9064 45.3933 32.8568 45.5158C32.8071 45.6383 32.7337 45.7497 32.6407 45.8436C32.5477 45.9375 32.437 46.0121 32.315 46.063C32.193 46.1138 32.0622 46.14 31.93 46.14V46.13ZM40.75 35.69C40.75 35.4922 40.8086 35.2989 40.9185 35.1344C41.0284 34.97 41.1846 34.8418 41.3673 34.7661C41.55 34.6905 41.7511 34.6706 41.9451 34.7092C42.1391 34.7478 42.3173 34.8431 42.4571 34.9829C42.597 35.1228 42.6922 35.3009 42.7308 35.4949C42.7694 35.6889 42.7496 35.89 42.6739 36.0727C42.5982 36.2554 42.47 36.4116 42.3056 36.5215C42.1411 36.6314 41.9478 36.69 41.75 36.69C41.6178 36.6913 41.4867 36.6665 41.3642 36.6168C41.2418 36.5671 41.1303 36.4937 41.0364 36.4007C40.9425 36.3077 40.8679 36.197 40.8171 36.075C40.7662 35.953 40.74 35.8222 40.74 35.69H40.75Z" fill="#4EFFB4"/>
<path d="M42.75 26.88C42.75 26.88 40.69 23.41 38.32 19C34.8723 22.8513 30.4818 25.7393 25.58 27.38C21.45 33.87 17.29 39.65 17.29 39.65C17.29 39.65 19.72 39.27 22.79 38.87C26.0308 38.0251 29.0693 36.5394 31.7264 34.5007C34.3834 32.462 36.605 29.9115 38.26 27C38.56 26.52 38.78 26.16 38.96 25.93C41 26.38 42.75 26.88 42.75 26.88ZM27.14 32.28C26.9423 32.28 26.7489 32.2214 26.5845 32.1115C26.42 32.0016 26.2918 31.8454 26.2162 31.6627C26.1405 31.48 26.1207 31.2789 26.1593 31.0849C26.1978 30.8909 26.2931 30.7127 26.4329 30.5729C26.5728 30.433 26.751 30.3378 26.9449 30.2992C27.1389 30.2606 27.34 30.2804 27.5227 30.3561C27.7054 30.4318 27.8616 30.56 27.9715 30.7244C28.0814 30.8889 28.14 31.0822 28.14 31.28C28.14 31.5452 28.0347 31.7996 27.8471 31.9871C27.6596 32.1746 27.4053 32.28 27.14 32.28ZM35.57 28.11C35.3723 28.11 35.1789 28.0514 35.0145 27.9415C34.85 27.8316 34.7218 27.6754 34.6462 27.4927C34.5705 27.31 34.5507 27.1089 34.5893 26.9149C34.6278 26.7209 34.7231 26.5427 34.8629 26.4029C35.0028 26.263 35.181 26.1678 35.375 26.1292C35.5689 26.0906 35.77 26.1104 35.9527 26.1861C36.1354 26.2618 36.2916 26.39 36.4015 26.5544C36.5114 26.7189 36.57 26.9122 36.57 27.11C36.57 27.3752 36.4647 27.6296 36.2771 27.8171C36.0896 28.0046 35.8353 28.11 35.57 28.11Z" fill="#4EFFB4"/>
<path d="M32.62 7C30.14 14.68 22.83 26.36 22.52 26.86C22.7 26.86 24.11 26.43 25.87 25.99C30.4431 24.3389 34.521 21.5514 37.72 17.89C35.7971 14.3686 34.0939 10.7317 32.62 7V7ZM28.41 23.3C28.2122 23.3 28.0189 23.2414 27.8544 23.1315C27.69 23.0216 27.5618 22.8654 27.4861 22.6827C27.4105 22.5 27.3906 22.2989 27.4292 22.1049C27.4678 21.9109 27.5631 21.7327 27.7029 21.5929C27.8428 21.453 28.0209 21.3578 28.2149 21.3192C28.4089 21.2806 28.61 21.3004 28.7927 21.3761C28.9754 21.4518 29.1316 21.58 29.2415 21.7444C29.3514 21.9089 29.41 22.1022 29.41 22.3C29.41 22.5652 29.3047 22.8196 29.1171 23.0071C28.9296 23.1946 28.6752 23.3 28.41 23.3ZM33.52 15.64C33.3222 15.64 33.1289 15.5814 32.9644 15.4715C32.8 15.3616 32.6718 15.2054 32.5961 15.0227C32.5205 14.84 32.5006 14.6389 32.5392 14.4449C32.5778 14.2509 32.6731 14.0727 32.8129 13.9329C32.9528 13.793 33.1309 13.6978 33.3249 13.6592C33.5189 13.6206 33.72 13.6404 33.9027 13.7161C34.0854 13.7918 34.2416 13.92 34.3515 14.0844C34.4614 14.2489 34.52 14.4422 34.52 14.64C34.52 14.9035 34.416 15.1563 34.2307 15.3436C34.0453 15.5308 33.7935 15.6374 33.53 15.64H33.52Z" fill="#4EFFB4"/>
</g>
</g>
<defs>
<filter id="filter0_d" x="5" y="0" width="54.31" height="64.5199" filterUnits="userSpaceOnUse" color-interpolation-filters="sRGB">
<feFlood flood-opacity="0" result="BackgroundImageFix"/>
<feColorMatrix in="SourceAlpha" type="matrix" values="0 0 0 0 0 0 0 0 0 0 0 0 0 0 0 0 0 0 127 0"/>
<feOffset dy="1"/>
<feGaussianBlur stdDeviation="4"/>
<feColorMatrix type="matrix" values="0 0 0 0 1 0 0 0 0 0.9 0 0 0 0 0 0 0 0 0.7 0"/>
<feBlend mode="normal" in2="BackgroundImageFix" result="effect1_dropShadow"/>
<feBlend mode="normal" in="SourceGraphic" in2="effect1_dropShadow" result="shape"/>
</filter>
<clipPath id="clip0">
<rect width="64" height="64" fill="white"/>
</clipPath>
</defs>
</svg>
