<svg height='300px' width='300px'  fill="#000000" xmlns="http://www.w3.org/2000/svg" xmlns:xlink="http://www.w3.org/1999/xlink" version="1.1" x="0px" y="0px" viewBox="0 0 90 90" enable-background="new 0 0 90 90" xml:space="preserve"><path d="M48.3,64.2c-7.7-1.8-13-5.5-13.5-9.9c-1.1,0.1-2.3,0.2-3.5,0.2L29.4,57c-0.2,0.3-0.1,0.5-0.1,0.6c0,0.1,0.2,0.3,0.5,0.3h2.5  c0.8,0,1.6,0.5,2,1.2c0.4,0.7,0.3,1.6-0.2,2.3l-7.6,10.4c-0.2,0.3-0.1,0.5,0,0.6c0,0.1,0.2,0.3,0.5,0.3h8.6  C42.3,72.7,47.7,68.9,48.3,64.2z M34.4,66.1c-0.4,0-0.8-0.4-0.8-0.8c0-0.4,0.4-0.8,0.8-0.8s0.8,0.4,0.8,0.8  C35.2,65.7,34.8,66.1,34.4,66.1z"></path><path d="M54.1,40.9l-8.6-12.2c-0.2-0.2-0.4-0.2-0.5-0.2c-0.1,0-0.3,0-0.5,0.2l-5.1,7.1C39.8,38.2,45.6,40.7,54.1,40.9z M45.2,34.2  c0.5,0,0.8,0.4,0.8,0.8c0,0.5-0.4,0.8-0.8,0.8s-0.8-0.4-0.8-0.8C44.4,34.6,44.7,34.2,45.2,34.2z"></path><path d="M40.2,19.3c0.5,0.5,0.8,1.2,0.6,2l-0.6,3.2c0,0.2,0,0.4,0.1,0.5c0.2,0.2,0.5,0.3,0.7,0.1l2.9-1.5c0.3-0.2,0.7-0.3,1-0.3  c0.4,0,0.7,0.1,1,0.3l2.9,1.5c0.2,0.1,0.5,0.1,0.7-0.1c0.1-0.1,0.2-0.2,0.1-0.5l-0.6-3.2c-0.1-0.7,0.1-1.5,0.6-2l2.3-2.3  c0.2-0.2,0.2-0.5,0.1-0.6c0-0.1-0.1-0.3-0.5-0.4l-3.2-0.5c-0.7-0.1-1.3-0.6-1.7-1.2l-1.4-2.9c-0.1-0.3-0.4-0.3-0.5-0.3  c-0.1,0-0.4,0-0.5,0.3L43,14.3c-0.3,0.7-0.9,1.1-1.7,1.2L38.1,16c-0.3,0-0.4,0.3-0.5,0.4c0,0.1-0.1,0.4,0.1,0.6L40.2,19.3z"></path><path d="M52.4,42.5c-0.5,5.6-7,10.2-15.9,11.5c0.5,5,9.8,9.3,21,9.6l-1.7-2.3c-0.5-0.7-0.6-1.6-0.2-2.3c0.4-0.7,1.1-1.2,2-1.2h2.5  c0.3,0,0.5-0.2,0.5-0.3c0-0.1,0.1-0.3-0.1-0.6l-7-9.1c-0.5-0.7-0.6-1.6-0.2-2.3c0.4-0.8,1.1-1.2,2-1.2c0.3,0,0.5-0.2,0.5-0.3  c0-0.1,0.1-0.3,0-0.6l-0.5-0.7C54.3,42.6,53.4,42.6,52.4,42.5z M48.2,55.3c-0.6,0-1.1-0.5-1.1-1.1c0-0.6,0.5-1.1,1.1-1.1  s1.1,0.5,1.1,1.1C49.3,54.8,48.8,55.3,48.2,55.3z"></path><path d="M50.8,42.4c-5.7-0.6-10.8-2.3-12.4-4.9l-4.2,5.9c-0.2,0.3-0.1,0.5,0,0.6c0,0.1,0.2,0.3,0.5,0.3c0.9,0,1.6,0.5,2,1.2  c0.4,0.8,0.3,1.7-0.2,2.3l-3.8,4.9C42.5,52.3,50.3,47.8,50.8,42.4z M40.7,42.4c0.5,0,0.9,0.4,0.9,0.9s-0.4,0.9-0.9,0.9  c-0.5,0-0.9-0.4-0.9-0.9S40.2,42.4,40.7,42.4z"></path><path d="M45,3.5C22.1,3.5,3.5,22.1,3.5,45S22.1,86.5,45,86.5c22.9,0,41.5-18.6,41.5-41.5S67.9,3.5,45,3.5z M36.1,15.9  c0.3-0.8,1-1.4,1.8-1.5l3.2-0.5c0.2,0,0.3-0.1,0.4-0.3l1.4-2.9c0.4-0.8,1.1-1.2,2-1.2s1.6,0.5,2,1.2l1.4,2.9  c0.1,0.2,0.2,0.3,0.4,0.3l3.2,0.5c0.8,0.1,1.5,0.7,1.8,1.5c0.3,0.8,0,1.7-0.6,2.3L51,20.5c-0.1,0.1-0.2,0.3-0.2,0.5l0.6,3.2  c0.1,0.6-0.1,1.3-0.5,1.8c-0.4,0.5-1,0.8-1.7,0.8c-0.4,0-0.7-0.1-1-0.3L45.3,25c-0.2-0.1-0.4-0.1-0.5,0l-2.9,1.5  c-0.9,0.5-2.1,0.2-2.7-0.5c-0.4-0.5-0.6-1.2-0.5-1.8l0.6-3.2c0-0.2,0-0.4-0.2-0.5l-2.3-2.3C36,17.6,35.8,16.7,36.1,15.9z M64.9,73.1  c-0.4,0.7-1.1,1.2-2,1.2H49.7v4c0,1.2-1,2.2-2.2,2.2h-4.9c-1.2,0-2.2-1-2.2-2.2v-4H27.1c-0.8,0-1.6-0.5-2-1.2  c-0.4-0.7-0.3-1.6,0.2-2.3l7.6-10.4c0.2-0.3,0.1-0.5,0-0.6c0-0.1-0.2-0.3-0.5-0.3h-2.5c-0.9,0-1.6-0.5-2-1.2  c-0.4-0.8-0.3-1.7,0.2-2.3l7-9.1c0.2-0.3,0.1-0.5,0.1-0.6c0-0.1-0.2-0.3-0.5-0.3c-0.8,0-1.6-0.5-2-1.2c-0.4-0.7-0.3-1.6,0.2-2.3  l10.3-14.6c0.4-0.6,1.1-0.9,1.8-0.9c0.7,0,1.4,0.4,1.8,0.9l10.3,14.6c0.5,0.7,0.5,1.6,0.2,2.3c-0.4,0.7-1.1,1.2-2,1.2  c-0.3,0-0.5,0.2-0.5,0.3c0,0.1-0.1,0.3,0.1,0.6l7,9.1c0.5,0.7,0.6,1.6,0.2,2.3c-0.4,0.8-1.1,1.2-2,1.2h-2.5c-0.3,0-0.5,0.2-0.5,0.3  s-0.1,0.3,0,0.6l7.6,10.4C65.2,71.5,65.3,72.3,64.9,73.1z"></path><path d="M58.7,65.3c-3.1,0-6.1-0.3-8.8-0.8c-0.5,3.4-3.1,6.4-6.8,8.2h19.8c0.3,0,0.5-0.2,0.5-0.3c0-0.1,0.1-0.3,0-0.6L58.7,65.3z   M54.9,69.2c-0.7,0-1.3-0.6-1.3-1.3c0-0.7,0.6-1.3,1.3-1.3c0.7,0,1.3,0.6,1.3,1.3C56.2,68.6,55.6,69.2,54.9,69.2z"></path><path d="M42,78.4c0,0.3,0.3,0.6,0.6,0.6h4.9c0.3,0,0.6-0.3,0.6-0.6v-4H42V78.4z"></path></svg>